ffmpeg started on 2025-06-19 at 11:44:26
Report written to "D:\Convert\FFMetrics\reports\psnr_report-6.txt"
Log level: 32
Command line:
ffmpeg -hide_banner -nostdin -i "G:\\\xc0\xed\xe8\xec\xe5\\[\xd2\xee\xef-4]\\Fate\\\xc0\xef\xee\xea\xf0\xe8\xf4\\Fate_Apocrypha_[02]_[AniLibria_TV]_[HDTVRip_720p]_HEVC.mkv" -i "G:\\\xc0\xed\xe8\xec\xe5\\[\xd2\xee\xef-4]\\Fate\\\xc0\xef\xee\xea\xf0\xe8\xf4\\Fate_Apocrypha_[02]_[AniLibria_TV]_[HDTVRip_720p].mkv" -lavfi "[0:v]settb=AVTB,setpts=PTS-STARTPTS,format=pix_fmts=yuv420p10,fps=24000/1001,scale=1280:720:flags=bicubic[main];[1:v]settb=AVTB,setpts=PTS-STARTPTS,format=pix_fmts=yuv420p,fps=24000/1001,scale=1280:720:flags=bicubic[ref];[main][ref]psnr=eof_action=endall:stats_file='D\\:/Convert/FFMetrics/logs/psnr_logfile-6.txt'" -f null -
Input #0, matroska,webm, from 'G:\Аниме\[Топ-4]\Fate\Апокриф\Fate_Apocrypha_[02]_[AniLibria_TV]_[HDTVRip_720p]_HEVC.mkv':
  Metadata:
    ENCODER         : Lavf61.7.100
  Duration: 00:24:00.17, start: -0.021000, bitrate: 735 kb/s
  Stream #0:0(jpn): Video: hevc (Main 10), yuv420p10le(tv, bt709, progressive), 1280x720 [SAR 1:1 DAR 16:9], 23.81 fps, 23.81 tbr, 1k tbn (default)
      Metadata:
        ENCODER         : Lavc61.19.100 libx265
        BPS             : 537479
        DURATION        : 00:24:00.054000000
        NUMBER_OF_FRAMES: 34525
        NUMBER_OF_BYTES : 96749927
        _STATISTICS_WRITING_APP: mkvpropedit v66.0.0 ('Josie') 64-bit
        _STATISTICS_WRITING_DATE_UTC: 2025-06-16 14:51:55
        _STATISTICS_TAGS: BPS DURATION NUMBER_OF_FRAMES NUMBER_OF_BYTES
  Stream #0:1(rus): Audio: aac (LC), 48000 Hz, stereo, fltp (default)
      Metadata:
        title           : Ados Amikiri Anzen Hekomi Silv
        ENCODER         : Lavc61.19.100 aac
        BPS             : 193756
        DURATION        : 00:24:00.149000000
        NUMBER_OF_FRAMES: 67508
        NUMBER_OF_BYTES : 34879857
        _STATISTICS_WRITING_APP: mkvpropedit v66.0.0 ('Josie') 64-bit
        _STATISTICS_WRITING_DATE_UTC: 2025-06-16 14:51:55
        _STATISTICS_TAGS: BPS DURATION NUMBER_OF_FRAMES NUMBER_OF_BYTES
  Stream #0:2(rus): Subtitle: ass (ssa) (default) (forced)
      Metadata:
        title           : Надписи
        BPS             : 496
        DURATION        : 00:00:03.000000000
        NUMBER_OF_FRAMES: 2
        NUMBER_OF_BYTES : 186
        _STATISTICS_WRITING_APP: mkvpropedit v66.0.0 ('Josie') 64-bit
        _STATISTICS_WRITING_DATE_UTC: 2025-06-16 14:51:55
        _STATISTICS_TAGS: BPS DURATION NUMBER_OF_FRAMES NUMBER_OF_BYTES
  Stream #0:3(rus): Subtitle: ass (ssa)
      Metadata:
        title           : Полные
        BPS             : 158
        DURATION        : 00:22:05.910000000
        NUMBER_OF_FRAMES: 301
        NUMBER_OF_BYTES : 26320
        _STATISTICS_WRITING_APP: mkvpropedit v66.0.0 ('Josie') 64-bit
        _STATISTICS_WRITING_DATE_UTC: 2025-06-16 14:51:55
        _STATISTICS_TAGS: BPS DURATION NUMBER_OF_FRAMES NUMBER_OF_BYTES
Input #1, matroska,webm, from 'G:\Аниме\[Топ-4]\Fate\Апокриф\Fate_Apocrypha_[02]_[AniLibria_TV]_[HDTVRip_720p].mkv':
  Metadata:
    encoder         : libebml v1.3.0 + libmatroska v1.4.1
    creation_time   : 2017-08-07T05:07:05.000000Z
  Duration: 00:24:00.15, start: 0.000000, bitrate: 2154 kb/s
  Stream #1:0: Video: h264 (Main), yuv420p(tv, bt709, progressive), 1280x720, SAR 1:1 DAR 16:9, 23.81 fps, 23.81 tbr, 1k tbn (default)
      Metadata:
        _STATISTICS_WRITING_APP: mkvmerge v7.3.0 ('Nouages') 64bit built on Oct 22 2014 18:53:34
        _STATISTICS_WRITING_APP-eng: mkvmerge v7.3.0 ('Nouages') 64bit built on Oct 22 2014 18:53:34
        _STATISTICS_WRITING_DATE_UTC: 2017-08-07 05:07:05
        _STATISTICS_WRITING_DATE_UTC-eng: 2017-08-07 05:07:05
        _STATISTICS_TAGS: BPS DURATION NUMBER_OF_FRAMES NUMBER_OF_BYTES
        _STATISTICS_TAGS-eng: BPS DURATION NUMBER_OF_FRAMES NUMBER_OF_BYTES
        BPS             : 1746677
        BPS-eng         : 1746677
        DURATION        : 00:24:00.053000000
        DURATION-eng    : 00:24:00.053000000
        NUMBER_OF_FRAMES: 34525
        NUMBER_OF_FRAMES-eng: 34525
        NUMBER_OF_BYTES : 314413576
        NUMBER_OF_BYTES-eng: 314413576
  Stream #1:1(rus): Audio: aac (LC), 48000 Hz, stereo, fltp (default)
      Metadata:
        title           : Ados Amikiri Anzen Hekomi Silv
        BPS             : 192091
        BPS-eng         : 192091
        DURATION        : 00:24:00.149000000
        DURATION-eng    : 00:24:00.149000000
        NUMBER_OF_FRAMES: 67507
        NUMBER_OF_FRAMES-eng: 67507
        NUMBER_OF_BYTES : 34580019
        NUMBER_OF_BYTES-eng: 34580019
        _STATISTICS_WRITING_APP: mkvmerge v7.3.0 ('Nouages') 64bit built on Oct 22 2014 18:53:34
        _STATISTICS_WRITING_APP-eng: mkvmerge v7.3.0 ('Nouages') 64bit built on Oct 22 2014 18:53:34
        _STATISTICS_WRITING_DATE_UTC: 2017-08-07 05:07:05
        _STATISTICS_WRITING_DATE_UTC-eng: 2017-08-07 05:07:05
        _STATISTICS_TAGS: BPS DURATION NUMBER_OF_FRAMES NUMBER_OF_BYTES
        _STATISTICS_TAGS-eng: BPS DURATION NUMBER_OF_FRAMES NUMBER_OF_BYTES
  Stream #1:2(jpn): Audio: aac (LC), 48000 Hz, stereo, fltp
      Metadata:
        title           : Оригинал
        _STATISTICS_WRITING_APP: mkvmerge v7.3.0 ('Nouages') 64bit built on Oct 22 2014 18:53:34
        _STATISTICS_WRITING_APP-eng: mkvmerge v7.3.0 ('Nouages') 64bit built on Oct 22 2014 18:53:34
        _STATISTICS_WRITING_DATE_UTC: 2017-08-07 05:07:05
        _STATISTICS_WRITING_DATE_UTC-eng: 2017-08-07 05:07:05
        _STATISTICS_TAGS: BPS DURATION NUMBER_OF_FRAMES NUMBER_OF_BYTES
        _STATISTICS_TAGS-eng: BPS DURATION NUMBER_OF_FRAMES NUMBER_OF_BYTES
        BPS             : 210673
        BPS-eng         : 210673
        DURATION        : 00:24:00.106000000
        DURATION-eng    : 00:24:00.106000000
        NUMBER_OF_FRAMES: 67505
        NUMBER_OF_FRAMES-eng: 67505
        NUMBER_OF_BYTES : 37923961
        NUMBER_OF_BYTES-eng: 37923961
  Stream #1:3(rus): Subtitle: ass (ssa) (default) (forced)
      Metadata:
        title           : Надписи
        _STATISTICS_WRITING_APP: mkvmerge v7.3.0 ('Nouages') 64bit built on Oct 22 2014 18:53:34
        _STATISTICS_WRITING_APP-eng: mkvmerge v7.3.0 ('Nouages') 64bit built on Oct 22 2014 18:53:34
        _STATISTICS_WRITING_DATE_UTC: 2017-08-07 05:07:05
        _STATISTICS_WRITING_DATE_UTC-eng: 2017-08-07 05:07:05
        _STATISTICS_TAGS: BPS DURATION NUMBER_OF_FRAMES NUMBER_OF_BYTES
        _STATISTICS_TAGS-eng: BPS DURATION NUMBER_OF_FRAMES NUMBER_OF_BYTES
        BPS             : 496
        BPS-eng         : 496
        DURATION        : 00:00:03.000000000
        DURATION-eng    : 00:00:03.000000000
        NUMBER_OF_FRAMES: 2
        NUMBER_OF_FRAMES-eng: 2
        NUMBER_OF_BYTES : 186
        NUMBER_OF_BYTES-eng: 186
  Stream #1:4(rus): Subtitle: ass (ssa)
      Metadata:
        title           : Полные
        _STATISTICS_WRITING_APP: mkvmerge v7.3.0 ('Nouages') 64bit built on Oct 22 2014 18:53:34
        _STATISTICS_WRITING_APP-eng: mkvmerge v7.3.0 ('Nouages') 64bit built on Oct 22 2014 18:53:34
        _STATISTICS_WRITING_DATE_UTC: 2017-08-07 05:07:05
        _STATISTICS_WRITING_DATE_UTC-eng: 2017-08-07 05:07:05
        _STATISTICS_TAGS: BPS DURATION NUMBER_OF_FRAMES NUMBER_OF_BYTES
        _STATISTICS_TAGS-eng: BPS DURATION NUMBER_OF_FRAMES NUMBER_OF_BYTES
        BPS             : 158
        BPS-eng         : 158
        DURATION        : 00:22:05.910000000
        DURATION-eng    : 00:22:05.910000000
        NUMBER_OF_FRAMES: 301
        NUMBER_OF_FRAMES-eng: 301
        NUMBER_OF_BYTES : 26320
        NUMBER_OF_BYTES-eng: 26320
  Stream #1:5: Attachment: ttf
      Metadata:
        filename        : ALBR.ttf
        mimetype        : application/x-truetype-font
  Stream #1:6: Attachment: ttf
      Metadata:
        filename        : 9511(1).ttf
        mimetype        : application/x-truetype-font
Stream mapping:
  Stream #0:0 (hevc) -> settb:default
  Stream #1:0 (h264) -> settb:default
  psnr:default -> Stream #0:0 (wrapped_avframe)
  Stream #0:1 -> #0:1 (aac (native) -> pcm_s16le (native))
Output #0, null, to 'pipe:':
  Metadata:
    encoder         : Lavf61.7.100
  Stream #0:0: Video: wrapped_avframe, yuv420p10le(tv, bt709, progressive), 1280x720 [SAR 1:1 DAR 16:9], q=2-31, 200 kb/s, 23.98 fps, 23.98 tbn
      Metadata:
        encoder         : Lavc61.19.100 wrapped_avframe
  Stream #0:1(rus): Audio: pcm_s16le, 48000 Hz, stereo, s16, 1536 kb/s (default)
      Metadata:
        title           : Ados Amikiri Anzen Hekomi Silv
        _STATISTICS_TAGS: BPS DURATION NUMBER_OF_FRAMES NUMBER_OF_BYTES
        BPS             : 193756
        DURATION        : 00:24:00.149000000
        NUMBER_OF_FRAMES: 67508
        NUMBER_OF_BYTES : 34879857
        _STATISTICS_WRITING_APP: mkvpropedit v66.0.0 ('Josie') 64-bit
        _STATISTICS_WRITING_DATE_UTC: 2025-06-16 14:51:55
        encoder         : Lavc61.19.100 pcm_s16le
frame=  469 fps=0.0 q=-0.0 size=N/A time=00:00:19.56 bitrate=N/A speed=36.8x    frame=  897 fps=848 q=-0.0 size=N/A time=00:00:37.41 bitrate=N/A speed=35.4x    frame= 1333 fps=850 q=-0.0 size=N/A time=00:00:55.59 bitrate=N/A speed=35.5x    frame= 1836 fps=883 q=-0.0 size=N/A time=00:01:16.57 bitrate=N/A speed=36.8x    frame= 2344 fps=900 q=-0.0 size=N/A time=00:01:37.76 bitrate=N/A speed=37.5x    frame= 2730 fps=877 q=-0.0 size=N/A time=00:01:53.86 bitrate=N/A speed=36.6x    frame= 3211 fps=886 q=-0.0 size=N/A time=00:02:13.92 bitrate=N/A speed=36.9x    frame= 3687 fps=888 q=-0.0 size=N/A time=00:02:33.77 bitrate=N/A speed=  37x    frame= 4082 fps=876 q=-0.0 size=N/A time=00:02:50.25 bitrate=N/A speed=36.5x    frame= 4429 fps=856 q=-0.0 size=N/A time=00:03:04.72 bitrate=N/A speed=35.7x    frame= 4876 fps=856 q=-0.0 size=N/A time=00:03:23.36 bitrate=N/A speed=35.7x    frame= 5248 fps=846 q=-0.0 size=N/A time=00:03:38.88 bitrate=N/A speed=35.3x    frame= 5795 fps=861 q=-0.0 size=N/A time=00:04:01.69 bitrate=N/A speed=35.9x    frame= 6303 fps=870 q=-0.0 size=N/A time=00:04:22.88 bitrate=N/A speed=36.3x    frame= 6871 fps=886 q=-0.0 size=N/A time=00:04:46.57 bitrate=N/A speed=  37x    frame= 7394 fps=893 q=-0.0 size=N/A time=00:05:08.39 bitrate=N/A speed=37.2x    frame= 7930 fps=902 q=-0.0 size=N/A time=00:05:30.74 bitrate=N/A speed=37.6x    frame= 8541 fps=919 q=-0.0 size=N/A time=00:05:56.23 bitrate=N/A speed=38.3x    frame= 9209 fps=938 q=-0.0 size=N/A time=00:06:24.09 bitrate=N/A speed=39.1x    frame= 9812 fps=950 q=-0.0 size=N/A time=00:06:49.24 bitrate=N/A speed=39.6x    frame=10457 fps=963 q=-0.0 size=N/A time=00:07:16.14 bitrate=N/A speed=40.2x    frame=11035 fps=969 q=-0.0 size=N/A time=00:07:40.25 bitrate=N/A speed=40.4x    frame=11571 fps=973 q=-0.0 size=N/A time=00:08:02.60 bitrate=N/A speed=40.6x    frame=11973 fps=965 q=-0.0 size=N/A time=00:08:19.37 bitrate=N/A speed=40.2x    frame=12479 fps=965 q=-0.0 size=N/A time=00:08:40.47 bitrate=N/A speed=40.2x    frame=13061 fps=971 q=-0.0 size=N/A time=00:09:04.75 bitrate=N/A speed=40.5x    frame=13700 fps=982 q=-0.0 size=N/A time=00:09:31.40 bitrate=N/A speed=40.9x    frame=14318 fps=989 q=-0.0 size=N/A time=00:09:57.17 bitrate=N/A speed=41.2x    frame=14818 fps=988 q=-0.0 size=N/A time=00:10:18.03 bitrate=N/A speed=41.2x    frame=15367 fps=991 q=-0.0 size=N/A time=00:10:40.93 bitrate=N/A speed=41.3x    frame=15972 fps=997 q=-0.0 size=N/A time=00:11:06.16 bitrate=N/A speed=41.6x    frame=16618 fps=1004 q=-0.0 size=N/A time=00:11:33.10 bitrate=N/A speed=41.9x    frame=17199 fps=1008 q=-0.0 size=N/A time=00:11:57.34 bitrate=N/A speed=42.1x    frame=17710 fps=1008 q=-0.0 size=N/A time=00:12:18.65 bitrate=N/A speed=42.1x    frame=18135 fps=1003 q=-0.0 size=N/A time=00:12:36.38 bitrate=N/A speed=41.8x    frame=18774 fps=1010 q=-0.0 size=N/A time=00:13:03.03 bitrate=N/A speed=42.1x    frame=19180 fps=1003 q=-0.0 size=N/A time=00:13:19.96 bitrate=N/A speed=41.8x    frame=19714 fps=1004 q=-0.0 size=N/A time=00:13:42.23 bitrate=N/A speed=41.9x    frame=20253 fps=1005 q=-0.0 size=N/A time=00:14:04.71 bitrate=N/A speed=41.9x    frame=20683 fps=1001 q=-0.0 size=N/A time=00:14:22.65 bitrate=N/A speed=41.7x    frame=21247 fps=1003 q=-0.0 size=N/A time=00:14:46.17 bitrate=N/A speed=41.8x    frame=21837 fps=1007 q=-0.0 size=N/A time=00:15:10.78 bitrate=N/A speed=  42x    frame=22237 fps=1001 q=-0.0 size=N/A time=00:15:27.46 bitrate=N/A speed=41.7x    frame=22884 fps=1007 q=-0.0 size=N/A time=00:15:54.45 bitrate=N/A speed=  42x    frame=23338 fps=1004 q=-0.0 size=N/A time=00:16:13.38 bitrate=N/A speed=41.9x    frame=23718 fps=998 q=-0.0 size=N/A time=00:16:29.23 bitrate=N/A speed=41.6x    frame=24199 fps=997 q=-0.0 size=N/A time=00:16:49.29 bitrate=N/A speed=41.6x    frame=24766 fps=999 q=-0.0 size=N/A time=00:17:12.94 bitrate=N/A speed=41.7x    frame=25365 fps=1002 q=-0.0 size=N/A time=00:17:37.93 bitrate=N/A speed=41.8x    frame=25960 fps=1006 q=-0.0 size=N/A time=00:18:02.74 bitrate=N/A speed=41.9x    frame=26461 fps=1005 q=-0.0 size=N/A time=00:18:23.64 bitrate=N/A speed=41.9x    frame=27021 fps=1006 q=-0.0 size=N/A time=00:18:47.00 bitrate=N/A speed=  42x    frame=27567 fps=1007 q=-0.0 size=N/A time=00:19:09.77 bitrate=N/A speed=  42x    frame=28069 fps=1007 q=-0.0 size=N/A time=00:19:30.71 bitrate=N/A speed=  42x    frame=28471 fps=1002 q=-0.0 size=N/A time=00:19:47.47 bitrate=N/A speed=41.8x    frame=28847 fps=998 q=-0.0 size=N/A time=00:20:03.16 bitrate=N/A speed=41.6x    frame=29265 fps=995 q=-0.0 size=N/A time=00:20:20.59 bitrate=N/A speed=41.5x    frame=29535 fps=986 q=-0.0 size=N/A time=00:20:31.85 bitrate=N/A speed=41.1x    frame=29864 fps=980 q=-0.0 size=N/A time=00:20:45.57 bitrate=N/A speed=40.9x    frame=30393 fps=981 q=-0.0 size=N/A time=00:21:07.64 bitrate=N/A speed=40.9x    frame=31000 fps=984 q=-0.0 size=N/A time=00:21:32.95 bitrate=N/A speed=41.1x    frame=31584 fps=987 q=-0.0 size=N/A time=00:21:57.31 bitrate=N/A speed=41.2x    frame=32145 fps=988 q=-0.0 size=N/A time=00:22:20.71 bitrate=N/A speed=41.2x    frame=32500 fps=983 q=-0.0 size=N/A time=00:22:35.52 bitrate=N/A speed=  41x    frame=32890 fps=980 q=-0.0 size=N/A time=00:22:51.78 bitrate=N/A speed=40.9x    frame=33321 fps=978 q=-0.0 size=N/A time=00:23:09.76 bitrate=N/A speed=40.8x    frame=33676 fps=973 q=-0.0 size=N/A time=00:23:24.56 bitrate=N/A speed=40.6x    frame=34009 fps=968 q=-0.0 size=N/A time=00:23:38.45 bitrate=N/A speed=40.4x    frame=34434 fps=966 q=-0.0 size=N/A time=00:23:56.18 bitrate=N/A speed=40.3x    [Parsed_psnr_10 @ 000002640d4f4a00] PSNR y:34.519674 u:47.206913 v:45.803996 average:36.143516 min:5.312345 max:67.882834
[out#0/null @ 000002647fd445c0] video:14836KiB audio:270032KiB subtitle:0KiB other streams:0KiB global headers:0KiB muxing overhead: unknown
frame=34527 fps=967 q=-0.0 Lsize=N/A time=00:24:00.06 bitrate=N/A speed=40.3x    
